<?xml version="1.0" encoding="UTF-8"?>
<svg id="_1080_x_1080_px_Logo_3" data-name="1080 x 1080 px Logo 3" xmlns="http://www.w3.org/2000/svg" viewBox="0 0 1080 1080">
  <defs>
    <style>
      .cls-1 {
        fill: #02c4a1;
      }

      .cls-2 {
        fill: none;
        stroke-width: 30px;
      }

      .cls-2, .cls-3 {
        stroke: #39393a;
        stroke-miterlimit: 10;
      }

      .cls-3, .cls-4 {
        fill: #39393a;
      }
    </style>
  </defs>
  <path class="cls-1" d="M285.1,472.05c12.53,3.3,24.92,7.12,37.12,11.5,6.1,2.19,12.15,4.52,18.14,6.98,1.25.51,4.13,1.74,1.22.49,1.6.69,3.21,1.38,4.81,2.08,2.97,1.3,5.92,2.64,8.86,4.01,23.56,10.96,46.17,23.95,67.56,38.71,5.36,3.7,10.64,7.5,15.84,11.42,1.2.9,2.39,1.82,3.59,2.73-3.04-2.32.98.78,1.69,1.34,2.56,2.02,5.09,4.07,7.61,6.14,10.07,8.3,19.79,17.01,29.14,26.11s18.35,18.6,26.93,28.45c4.29,4.93,8.49,9.95,12.57,15.05,1.1,1.37,2.18,2.77,3.28,4.14,1.28,1.59-.35-.47-.5-.66.46.6.92,1.2,1.38,1.8,1.98,2.6,3.94,5.22,5.87,7.87,17.54,24.04,32.71,49.76,45.29,76.73,3.99,8.56,16.98,11.39,24.63,6.46,8.81-5.68,10.73-15.47,6.46-24.63-23.09-49.49-55.16-94.89-93.5-133.76-38.09-38.61-82.84-71.25-131.57-95.11-27.81-13.61-56.91-24.68-86.86-32.55-9.1-2.39-19.97,3.02-22.14,12.57-2.15,9.42,2.83,19.58,12.57,22.14h0Z"/>
  <path class="cls-2" d="M772,671.53l-404.91,264.35c-26.76,17.47-62.34-.95-63.53-32.89l-18.41-496.87c-1.18-31.9,32.87-52.9,60.84-37.54l423.32,232.52c27.19,14.94,28.66,53.46,2.68,70.42Z"/>
  <path class="cls-4" d="M328.68,142.06c3.15,2.18,6.26,4.41,9.31,6.71,4.73,3.56-3.44-2.76,1.19.94,1.79,1.43,3.57,2.89,5.33,4.37,6.06,5.09,11.9,10.45,17.5,16.04s10.99,11.44,16.12,17.48c2.49,2.93,4.89,5.93,7.28,8.94,1.98,2.48-2.82-3.76-.94-1.2.61.83,1.23,1.64,1.84,2.46,1.37,1.86,2.73,3.73,4.06,5.61,9.18,13.02,17.31,26.78,24.28,41.11,1.69,3.47,3.31,6.97,4.86,10.51,2.41,5.49-1.67-4.18.6,1.37.88,2.14,1.73,4.3,2.56,6.46,2.85,7.46,5.39,15.03,7.62,22.7,2.52,8.66,4.64,17.44,6.33,26.29.87,4.56,1.4,9.18,2.28,13.74.03.14-.66-5.28-.35-2.54.15,1.28.32,2.56.46,3.84.29,2.57.53,5.14.76,7.71,1.08,12.47,10.26,24.62,24,24,12.07-.54,25.16-10.61,24-24-6.32-72.72-37.27-141.98-88.05-194.6-14.18-14.69-30.03-27.77-46.81-39.38-10.35-7.17-27.1-2.25-32.84,8.61-6.47,12.24-2.44,25.19,8.61,32.84h0Z"/>
  <path class="cls-4" d="M690.94,450.67c12.9-11.68,25.07-20.68,40.55-29.87,14.68-8.71,29-15.47,43.85-20.79,33.11-11.86,64.1-16.63,98.87-15.07,7.85.35,15.35-7.15,15-15-.38-8.43-6.59-14.62-15-15-57.4-2.58-115.6,13.18-164.17,43.81-14.29,9.01-27.8,19.36-40.32,30.7-6.01,5.44-5.53,15.69,0,21.21,5.98,5.98,15.19,5.45,21.21,0h0Z"/>
  <path class="cls-3" d="M850.36,232.29c-6.55,26.41-32.87,42.41-58.8,35.74-25.93-6.67-41.64-33.48-35.09-59.89,6.55-26.41,32.87-42.41,58.8-35.74,25.93,6.67,41.64,33.48,35.09,59.89Z"/>
  <path class="cls-1" d="M634.88,62.41c-24.24,22.73-51.17,44.49-69.89,72.26-18.79,27.87-25.7,66.83-8.04,97.01,7.99,13.65,20.67,23.48,34.15,31.29,5.39,3.12,10.91,6,16.25,9.18,2.54,1.51,4.99,3.15,7.45,4.79,3.5,2.34-3.75-3.22-.57-.5,1.36,1.16,2.71,2.32,3.98,3.58.96.94,1.84,1.95,2.75,2.94,2.55,2.77-2.94-4.39-.05.1.78,1.22,1.6,3.79,2.62,4.69-.04-.04-1.69-4.66-.93-2.24.3.96.68,1.9.98,2.87.52,1.7.89,3.42,1.28,5.16.99,4.35-.25-4.79-.04-.31.18,3.66.14,7.24-.05,10.89-.24,4.55.89-4.61.08-.1-.33,1.83-.67,3.65-1.08,5.47-.83,3.63-1.88,7.2-3.1,10.71-.59,1.7-1.51,3.43-1.95,5.16-.01.06,2.04-4.56.91-2.18-.33.69-.62,1.4-.94,2.09-1.5,3.24-3.11,6.43-4.84,9.55-1.85,3.34-3.84,6.61-5.94,9.79-1.12,1.7-2.28,3.37-3.47,5.02-.45.62-.9,1.23-1.35,1.85-2.25,3.08.76-1.31.96-1.23-.29-.11-6.68,7.84-7.45,8.67-2.59,2.79-5.28,5.48-8.07,8.07-1.49,1.38-3,2.72-4.55,4.04-.85.72-4.63,2.99-4.7,3.85,0-.06,3.93-2.9,1.84-1.45-.83.58-1.63,1.2-2.45,1.78-1.65,1.17-3.32,2.31-5.01,3.41-6.57,4.27-13.47,7.95-20.64,11.11-11.53,5.08-15.08,22.8-8.61,32.84,7.7,11.94,20.5,14.05,32.84,8.61,28.22-12.45,51.83-33.5,69.53-58.55,18.65-26.4,31.38-60.88,24.09-93.33-4.01-17.85-15.36-31.5-29.63-42.2-9.93-7.44-21.36-12.44-31.77-19.13-1.34-.86-2.66-1.75-3.96-2.67-4.3-3.07,2.97,2.67.04.02-2.28-2.06-4.31-4.83-6.68-6.7.02.02,2.86,4.16,1.57,1.98-.38-.64-.85-1.23-1.24-1.86-.92-1.47-1.62-3.05-2.5-4.54-1.28-2.15.93,2.31.94,2.35-.12-.68-.53-1.43-.76-2.08-.64-1.87-1.17-3.78-1.6-5.71-.21-.94-1.08-5.99-.45-1.96s-.02-1.78-.06-2.81c-.05-1.52-.04-3.04.02-4.55.04-1.02.15-2.03.18-3.05.11-3.3-.05.7-.33,1.82.82-3.22,1.19-6.54,2.1-9.75.49-1.72,1.03-3.42,1.64-5.11.26-.72.56-1.42.81-2.14,1.03-2.92-2.11,4.24-.62,1.55,2.03-3.69,3.79-7.45,6.05-11.02,1.2-1.9,2.46-3.76,3.76-5.58.49-.68,1.01-1.35,1.49-2.04,1.7-2.41-3,3.62-.13.2,5.46-6.51,11.23-12.68,17.3-18.61,13.68-13.36,27.84-26.25,41.8-39.33,9.18-8.61,9.34-25.37,0-33.94-9.84-9.03-24.15-9.18-33.94,0h0Z"/>
</svg>