<?xml version="1.0" encoding="UTF-8"?>
<svg id="_1080_x_1080_px_Logo_1" data-name="1080 x 1080 px Logo 1" xmlns="http://www.w3.org/2000/svg" viewBox="0 0 1080 404">
  <defs>
    <style>
      .cls-1 {
        fill: #02c4a1;
      }

      .cls-2 {
        fill: none;
        stroke-width: 15px;
      }

      .cls-2, .cls-3 {
        stroke: #39393a;
        stroke-miterlimit: 10;
      }

      .cls-3, .cls-4, .cls-5 {
        fill: #39393a;
      }

      .cls-4 {
        font-family: SFProRounded-Semibold, 'SF Pro Rounded';
        font-size: 137px;
        font-weight: 600;
      }
    </style>
  </defs>
  <text class="cls-4" transform="translate(370.46 315.56)"><tspan x="0" y="0">CONFETTI</tspan></text>
  <g id="Graphic_Elements-4" data-name="Graphic Elements">
    <g>
      <path class="cls-1" d="M115.62,181.39c49.41,13.14,90.84,48.69,112.53,94.84,3.28,6.98,13.63.9,10.36-6.06-22.93-48.81-67.53-86.48-119.7-100.36-7.47-1.99-10.66,9.58-3.19,11.57h0Z"/>
      <path class="cls-2" d="M305.41,259.2l-156.11,101.92c-10.32,6.74-24.04-.37-24.49-12.68l-7.1-191.57c-.46-12.3,12.67-20.4,23.46-14.47l163.21,89.65c10.48,5.76,11.05,20.61,1.03,27.15Z"/>
      <path class="cls-5" d="M133.1,57.44c23.33,16.31,38.93,43.99,41.47,71.86.59,6.45,5.09,12,12,12,6.03,0,12.59-5.51,12-12-3.41-37.31-22.59-71.08-53.36-92.58-5.31-3.71-13.33-.97-16.42,4.31-3.5,5.98-1.02,12.69,4.31,16.42h0Z"/>
      <path class="cls-5" d="M276.43,176.33c18.71-16.77,43.33-25.4,68.39-24.4,11.58.46,11.56-17.54,0-18-29.85-1.19-58.94,9.8-81.11,29.67-8.65,7.75,4.12,20.44,12.73,12.73h0Z"/>
      <path class="cls-3" d="M335.62,89.86c-2.52,10.18-12.67,16.35-22.67,13.78s-16.05-12.91-13.53-23.09c2.52-10.18,12.67-16.35,22.67-13.78s16.05,12.91,13.53,23.09Z"/>
      <path class="cls-1" d="M250.6,22.42c-11.08,10.38-24.53,20.65-30.89,34.82-6.99,15.57-4.33,33.27,9.8,43.69,4.02,2.97,10.7,5.91,13.46,8.16,3.8,3.11,3.56,7.9,1.6,13.49-4.15,11.8-13.8,20.55-24.98,25.6-5.91,2.67-7.33,11.24-4.31,16.42,3.55,6.08,10.49,6.98,16.42,4.31,13.79-6.23,25.71-17.68,32.38-31.29,7.2-14.69,9.32-33.55-4.15-45.49-5.06-4.48-11.26-6.87-16.69-10.75-2.62-1.87-3.97-5.25-3.33-9.25.99-6.18,5.35-11.34,9.91-15.96,5.71-5.79,11.81-11.22,17.74-16.78,11.29-10.59-5.7-27.53-16.97-16.97h0Z"/>
    </g>
  </g>
</svg>